/* XPM */
static char *result[] = {
/* columns rows colors chars-per-pixel */
"64 64 185 2 ",
"   c #020201",
".  c #090703",
"X  c #0C0A04",
"o  c #0C0B0B",
"O  c #080708",
"+  c #110E03",
"@  c #120D0C",
"#  c #1B0E0F",
"$  c #1C1604",
"%  c #13110B",
"&  c #18150B",
"*  c #0F1415",
"=  c #141312",
"-  c #1C1916",
";  c #1C1B1C",
":  c #191715",
">  c #211C0F",
",  c #261D05",
"<  c #221C19",
"1  c #271914",
"2  c #321419",
"3  c #38181D",
"4  c #2E2305",
"5  c #3C2D05",
"6  c #312607",
"7  c #2A2414",
"8  c #242119",
"9  c #3A331D",
"0  c #392F12",
"q  c #111C20",
"w  c #3C1C22",
"e  c #232424",
"r  c #2B2B2C",
"t  c #2A2827",
"y  c #342C26",
"u  c #312B2A",
"i  c #3C3328",
"p  c #2E2F30",
"a  c #2F3032",
"s  c #323234",
"d  c #3B3C3D",
"f  c #37383A",
"g  c #4F3C06",
"h  c #423718",
"j  c #431C23",
"k  c #58252D",
"l  c #522129",
"z  c #453B2E",
"x  c #752F3A",
"c  c #732F3A",
"v  c #574207",
"b  c #5A4A1E",
"n  c #644C08",
"m  c #6F5408",
"M  c #715609",
"N  c #7C5D09",
"B  c #574B2D",
"V  c #4F423A",
"C  c #52453B",
"Z  c #4D4328",
"A  c #6C5E38",
"S  c #73643C",
"D  c #3D3F41",
"F  c #6D3F49",
"G  c #3F4143",
"H  c #444346",
"J  c #47484B",
"K  c #5B4C42",
"L  c #4C4E51",
"P  c #4F5153",
"I  c #515356",
"U  c #57595C",
"Y  c #5A5C5E",
"T  c #545659",
"R  c #5F5045",
"E  c #66564A",
"W  c #715E52",
"Q  c #735150",
"!  c #786457",
"~  c #7A6B41",
"^  c #5B5D60",
"/  c #5F6266",
"(  c #606366",
")  c #686B6D",
"_  c #6E7174",
"`  c #73777B",
"'  c #8E6B0A",
"]  c #84640A",
"[  c #916E0A",
"{  c #9A750B",
"}  c #A57C0C",
"|  c #93782E",
" . c #886F2A",
".. c #863643",
"X. c #883744",
"o. c #933B4A",
"O. c #A74353",
"+. c #B94A5C",
"@. c #867647",
"#. c #836D5E",
"$. c #907F4D",
"%. c #8B7464",
"&. c #937B6B",
"*. c #987F6E",
"=. c #B76979",
"-. c #DA586D",
";. c #D4556A",
":. c #DF5A70",
">. c #C85064",
",. c #E85D74",
"<. c #FC657E",
"1. c #F4627A",
"2. c #EF6078",
"3. c #AE830C",
"4. c #B98B0D",
"5. c #CC9A0F",
"6. c #C4940E",
"7. c #D39F0F",
"8. c #DCA610",
"9. c #D7A20F",
"0. c #E4AC10",
"q. c #E8AF11",
"w. c #EDB311",
"e. c #9D8A53",
"r. c #A79258",
"t. c #A38F57",
"y. c #9D8372",
"u. c #A78C79",
"i. c #B39970",
"p. c #B9A262",
"a. c #CEA840",
"s. c #EABF49",
"d. c #CEB56E",
"f. c #B2E26D",
"g. c #F5C84C",
"h. c #F5C74C",
"j. c #DEC376",
"k. c #E6CA7A",
"l. c #EFD27F",
"z. c #3F798D",
"x. c #427F93",
"c. c #7B7E83",
"v. c #BF6E80",
"b. c #C67284",
"n. c #7D8286",
"m. c #61B9D8",
"M. c #70D6F9",
"N. c #6FD7F9",
"B. c #95999E",
"V. c #93979C",
"C. c #82878B",
"Z. c #B79984",
"A. c #B69883",
"S. c #999EA3",
"D. c #A7ACB2",
"F. c #AEB3B9",
"G. c #A5A9AF",
"H. c #E8859B",
"J. c #C1A28C",
"K. c #C8A791",
"L. c #CEAC95",
"P. c #C7A690",
"I. c #D8B49C",
"U. c #D6B39B",
"Y. c #D1AF97",
"T. c #F98FA6",
"R. c #DDB8A0",
"E. c #E2BDA3",
"W. c #FCDD86",
"Q. c #F5D782",
"!. c #E7C2A8",
"~. c #F1CAAF",
"^. c #F5CCB1",
"/. c #F8CFB3",
"(. c #F9D0B4",
"). c #BDC3CA",
"_. c #CCD2D9",
"`. c #D0D6DD",
"'. c #D6DCE3",
"]. c #DBE2E9",
"[. c #D9E0E7",
"{. c #E5ECF4",
"}. c #E8EFF7",
"|. c #EDF4FC",
" X c None",
/* pixels */
" X X X X X X X X X X X X X X X X X X X X X X X X X X X X X X X X X X X X X X X XN.N. X X X X X X X X X X X X X X X X X X X X X X",
" X X X X X X X X X X X X X X X X X X X X X X    O O O      X X X X X X X X X X X X X X X X X X X X X X X X X X X X X X X X X X X",
" X X X X X X X X X X X X X X X X X X X    * t s f f f r =      X X X X X X X X X X X X X X X X X X X X X X X X X X X X X X X X X",
" X X X X X X X X X X X X X X X X X    e P Y ^ ^ ^ ^ ^ ^ ^ H           O    X X X X X X X X X X X X X X X X X X X X X X X X X X X",
" X X X X X X X X X X X X X X X X  O H ^ ^ ^ ^ ^ ^ ^ ^ ^ ^ ^ H   ; s D a O    X X X X X X X X X X X X X X X X X X X X X X X X X X",
" X X X X X X X X X X X X X X X X  L Y Y ^ ^ ^ ^ ^ ^ ^ ^ ^ ^ ^ Y ^ ^ ^ ^ ^ r    X X X X X Xg.g. X X X X X X X X X X X X X X X X X",
" X X X X X X X X X X X X X X X  d ^ ^ ^ ^ ^ ^ ^ ^ ^ ^ ^ ^ ^ ^ ^ ^ ^ ^ ^ ^ ^ ;    X X X Xg.g.g. X X X X X X X X X X X X X X X X X",
" X X X X X X X X X X X X X X  = ^ ^ ^ ^ ^ ^ ^ ^ ^ ^ ^ ^ ^ ^ ^ ^ ^ ^ ^ ^ ^ ^ L    X X X X Xg. X X X X X X X X X X X X X X X X X X",
" X X X X X X X X X X X X X X  D ^ ^ ^ ^ ^ ^ ^ ^ ^ ^ ^ ^ ^ ^ ^ ^ ^ ^ ^ ^ ^ ^ ^ O  X X X X X X X X X X X X X X X X X X X X X X X X",
" X X X X X X X X X X X X X X  U ^ ^ ^ ^ ^ ^ ^ ^ ^ ^ ^ ^ ^ ^ ^ ^ ^ ^ ^ ^ ^ ^ ^ o  X X X X X X X X X X X X X X X X X X X X X X X X",
" X X X X X X X X X X X X X Xo ^ ^ ^ ^ ^ ^ ^ ^ ^ ^ ^ ^ J @ r Y ^ ^ ^ ^ ^ ^ ^ ^ o  X X X X X X X X X X X X X X X X X X X X X X X X",
" X X X X X X X X X X X X X X: ^ ^ ^ ^ ^ ^ ^ ^ ^ ^ ^ J   C o = H ^ ^ ^ ^ ^ ^ ^ o  X X X X X X X X X X X X X X X X X X X X X X X X",
" X X X X X X X X X X X X X  : ^ ^ ^ ^ ^ Y Y ^ Y Y a   E /.E.V   o e f D I ^ ^ o  X X X X X X X X X X X X X X X X X X X X X X X X",
" X X X X X X X X X X X X X  ; ^ Y J J T U I J p O o y.(.(.(./.I.%.z ; O O ^ ^ o  X X X X X X X X X X X X X X X X X X X X X X X X",
" X X X X X X X X X X X X X  * J r             t %.~.(.(.(.(.(.(.(.(.(.J.  d I o  X X X X X X X X X X X X X X X X X X X X X X X X",
" X X X X X X X X X X X X X      O - !.L.P.Y.^.(.(.(.(.(.(.(.(.(.(.(.(.J.  O      X X X X X X X X X X X X X X X X X X X X X X X X",
" X X X X X X X X X X X X XO V I.&.< (.(.(.(.(.(.(.(.(.(.(.(.(.(.(.(.(.J.  ~.A.= O  X X X X X X X X X X X X X X X X X X X X X X X",
" X X X X X X X X X X X X. y /.(.&.< (.(.(.(.(.(.(.(.(.(.(.(.(./.(.(.(.J.  ^./.P.   X X X X X X X X X X X X X X X X X X X X X X X",
" X X X X X X X X X X X X  y./.(.&.< /.(.(.(.A.&.(.(.(.(.(.!.%.L.(.(.(.J.  ~./.(.y    X X X X X X X X X X X X X X X X X X X X X X",
" X X X X X X X X X X X X  A././.&.< (.(.(.E.    u.(.(.(.(.E   y (.(.(.Z.  ^././.V    X X X X X X X X X X X X X X X X X X X X X X",
" X X X X X X X X X X X XX ! /./.&.< (.(.(./.y = U.(.(.(./.u.O ! (.(.(.J.  ~./.~.=  X X X X X X X X X X X X X X X X X X X X X X X",
" X X X X X X X X X X X X XO J./.&.< (.(.(.(.(.(.(.(.(.(./././.(.(.(.(.J.  ~./.W .  X X X X<.<. X X X X X X X X X X X X X X X X X",
" X X X X X X X X X X X X XO   E C < (.(.(.(.(.(.(.(.(.(././.(.(.(.(.(.Z.  #.y    X X X X X X X X X X X X X X X X X X X X X X X X",
" X X X X X X X X X X X X X X XO O X (.(.(.(.(.(.(.(.(.(.(./.(.(.(.(.(.u.  X O  X X X X X X X X X X X X X X X X X X X X X X X X X",
" X X X X X X X X X X X X X X X X X  E.(.(.(.(.J.I.(.(.(.(.Y.L.(.(.(.(.#.O  X X X X X X X X X X X X X X X X X X X X X X X X X X X",
" X X X X X X X X X X X X X X X X XO y.(.(.(.(.E < P.(.(.Z.o #.(.(.(.(.y    X X X X X X X  X         +  X X X X X X X X X X X X X",
" X X X X X X X X X X X X X X X X X  t /.(.(./.~.C   < -   W /.(.(.(.K.   X X X X X X+   Z & v 5.6.  h - .  X X X X X X X X X X X",
" X X X X X X X X X X X Xf. X X X X X  y.(.(.(.(.(.L.*.y.I.(./.(.(.(.i O  X X X X X  B j.p.  6.w.w.v 9 Q.t.& X  X X X X X X X X X",
" X X X X X X X X X X X X X X X X X X XO K.(.(.(.(.(.(.(.(.(././.(.W O  X X X X X  e.W.W.7 n w.w.w.7.. e.W.l.9 X  X X X X X X X X",
" X X X X X X X X X X X X X X X X X X X. X A././.(.(.(.(.(.(././.E    X X X X X  X > > &   8.w.w.w.w.m X > > &   O  X X X X X X X",
" X X X X X X X X X X X X X X X X X X X X    K U.(././.(.(./.u.<    X X X X X  n { ' ' ]   3.w.w.w.w.5 5 ' ' ' 3.X  X X X X X X X",
" X X X X X X X X XM. X X X X X X X X X X X X    8 E ! W C o      X X X X X X+ q.w.w.w.w.v 4 q.w.w.}   5.w.w.w.w.]    X X X X X X",
" X X X X X X X XM.M.M. X X X X X X X X X X X  u.#.K i z K u.u.   X X X X XX $ 6.w.w.w.w.9.X , 6 6 + n w.w.w.w.w.m    X X X X X X",
" X X X X X X X XM.M.M. X X X X X X X X X X X  E.(.(.(.(.(.(.J.   X X X X X  < g w.w.w.w.4.  S @.@.9 g w.w.w.w.4.  7    X X X X X",
" X X X X X X X X XM. X X X X X X X X X X Xo y /.(.(.(.(.(.(.^.: X  X X X XX d.  } w.w.w.6 B W.W.W.d.  } w.w.w.6 B @.&  X X X X X",
" X X X X X X X X X X X X X X X X X X X  O < I./.(.(.(.(.(.(./.K.: O  X X X> W.S $ m m v X k.W.W.W.W.A $ m m v X k.r.X  X X X X X",
" X X X X X X X X X X X X X X X X XO   * = u /./.(.(.(.(.(.(.(.^.- : o     7 W.@.+ g g 5 X l.W.W.W.W.@.+ g g 5 + k.t.X  X X X X X",
" X X X X X X X X X X X X  X     : J   H L O u./.(.(.(.(.(.(.(.#.o U d O d X j.X [ w.w.q., A W.W.W.k.X ' w.w.q., A e.+  X X X X X",
" X X X X X X X X      o D ` G.'.|.|./ = ^ s o L.(.(.(.(./.(.Z.  d Y o n.`.  i 4 w.w.w.w.}   e.r.r.Z 6 w.w.w.w.}   9 X  X X X X X",
" X X X X X X XO a B._.|.|.|.|.|.|.|.].o a ^ e - I.(.(.(./.K.@ r ^ e ; {.|.- + 4.w.w.w.w.0.X X + + O M w.w.w.w.w.v    X X X X X X",
" X X X X X XO G }.|.|.|.|.|.|.|.|.|.|.H   d U ; = J.(.(.A.O e ^ f   / |.|.n.$ 0.w.w.w.w.m $ 0.w.w.' X 9.w.w.w.w.{    X X X X X X",
" X X X X X X  ).|.|.|.|.|.|.|.|.|.|.|.J @ O H Y e   W R   p ^ d   @ / |.|.].o ] 4.3.3.} . { w.w.w.q.4 g 3.3.3.6.+  X X X X X X X",
" X X X X X X  {.|.|.|.|.|.|.|.|.|.|.|.H x ..O f ^ G @ = J ^ s O o.k ( |.|.|.S.          X 0.w.w.w.w.N           X  X X X X X X X",
" X X X X X X  _.|.|.|.|.|.|.|.|.|.|.|.H x <.o.  e T ^ ^ L ; O O.<.k ( |.|.|.|.) X p.W.Q.& M w.w.w.8.+ @.W.Q.B .  X X X X X X X X",
" X X X X X X    r _.}.|.|.|.|.|.|.|.|.H x <.<.>.1 O r e O 2 ;.<.<.k ( |.|.|.|.|._   S Q.t.  5.w.w.n 7 Q.d.> X  X X X X X X X X X",
" X X X X X X+ a.b O _.}.|.|.|.|.|.|.|.H x <.<.<.1.o.w w O.<.<.<.<.k ^ |.|.|.|.|.|.G.- X A & m q.8.. B 9   X  X X X X X X X X X X",
" X X X X X X& g.g.h L |.|.|.|.|.|.|.|.H x <.<.<.<.<.<.<.1.<.<.<.<.k ( {.|.|.|.|.|.|.}.V.d           X    X X X X X X X X X X X X",
" X X X X X X7 g.g.| : |.|.|.|.|.|.|.|.H x <.<.<.<.<.<.<.<.<.<.2.>.j I _.{.|.|.|.|.|.|.}.].[.).X  X X X X X X X X X X X X X X X X",
" X X X X X X7 g.g. .8 |.|.|.|.|.|.|.|.H x <.<.<.<.<.<.<.<.<.<.1         r |.|.|.|.|.C.           X X X X X X X X X X X X X X X X",
" X X X X X X0 g.h.> ) |.|.|.U `.|.|.|.H x <.<.<.<.<.<.<.<.<.2.  =.H.H.=.  }.).) |.].  z.m.m.m.*  X X X X Xg. X X X X X X X X X X",
" X X X X X  7 | > ; ].|.|.|.  F.|.|.|.H x <.<.<.<.<.<.<.<.<.,.  b.T.T.v.  {.B.; |.].  x.m.m.m.;  X X X Xg.h. X X X X X X X X X X",
" X X X X X    : ( ].|.|.|.|.O F.|.|.|.H x <.<.<.<.<.<.<.<.<.b.2 Q T.T.F s |.B.e |.|.n.           X X X X X X X X X X X X X X X X",
" X X X X X  I |.|.|.|.|.|.|.  F.|.|.|.H x <.<.<.<.<.<.<.<.<.<.O.O =.=.  D.|.B.; |.|.|.{._._.`.r  X X X X X X X X X X X X X X X X",
" X X X X X  Y |.|.|.|.|.|.|.  F.|.|.|.H x <.<.<.<.<.<.<.<.<.<.<...    c.|.|.B.; |.|.|.|.|.|.|.d    X X X X X X X X X X X X X X X",
" X X X X XO = u r u u u u r   F.|.|.|.H x <.<.<.<.<.<.<.<.<.<.<.<.l U |.|.|.B.. u u r u u r u O    X X X X X X X X X X X X X X X",
" X X X X X@ 3 X...X.......X.  F.|.|.|.H x <.<.<.<.<.<.<.<.<.<.<.<.k ( |.|.|.B.o ..............2    X X X X X X X X X X X X X X X",
" X X X X X= c -.-.-.-.-.-.-.  F.|.|.|.H x <.-.3 2 2 2 2 2 2 3 -.<.k / |.|.|.B.# -.-.-.-.-.-.-.l    X X X X X X X X X X X X X X X",
" X X X X X@                   F.|.|.|.H x <.1.o.............o.1.<.k ( |.|.|.B.                  O  X X X X X X X X X X X X X X X",
" X X X X X= ! I.I.I.I.I.I.I.  F.|.|.|.H x <.<.<.,.+.+.+.+.,.<.<.<.k / |.|.|.B.: I.I.I.I.U.I.I.E o  X X X X X X X X X X X X X X X",
" X X X X X@ &.(././././.(.(.  F.|.|.|.H x <.<.<...        ..<.<.<.k / |.|.|.B.- (.(./.(./.(./.! =  X X X X X X X X X X X X X X X",
" X X X X Xo y.(.(.(.(.(.(.(.  F.|.|.|.H x <.<.<.<.<.<.<.<.<.<.<.<.k / |.|.|.B.- (.(.(.(.(.(.(.#.=  X X X X X X X X X X X X X X X",
" X X X X XO u.(.(.(.(.(.(.(.O F.|.|.|.H x <.<.<.<.<.<.<.<.<.<.<.<.k / |.|.|.B.- (.(.(.(.(.(.(.%.@  X X X X X X X X X X X X X X X",
" X X X X Xo W A.A.Z.A.A.A.A.  n.F.F.F.a l +.+.+.+.+.+.+.+.+.+.+.+.3 J F.F.F._ : A.A.Z.Z.Z.Z.Z.K %  X X X X X X X X X X X X X X X",
" X X X X X XO                                                                                 O  X X X X X X X X X X X X X X X X"
};
