/* XPM */
static char *result[] = {
/* columns rows colors chars-per-pixel */
"64 64 115 2 ",
"   c #6D2E03",
".  c #883D09",
"X  c #8C3F0A",
"o  c #8E420E",
"O  c #904410",
"+  c #924713",
"@  c #954B19",
"#  c #974B19",
"$  c #964C1A",
"%  c #984D1B",
"&  c #994E1D",
"*  c #9A4F1E",
"=  c #9A501F",
"-  c #9A5020",
";  c #9B5120",
":  c #9A5121",
">  c #9A5123",
",  c #9B5323",
"<  c #9D5221",
"1  c #9D5525",
"2  c #9E5525",
"3  c #A15729",
"4  c #A25829",
"5  c #A25A2C",
"6  c #A55B2E",
"7  c #A35C2E",
"8  c #A55C2E",
"9  c #A55D2F",
"0  c #A65E30",
"q  c #AA5F34",
"w  c #A76033",
"e  c #AC6639",
"r  c #B0693E",
"t  c #B37045",
"y  c #B67148",
"u  c #B6754C",
"i  c #B7764E",
"p  c #BE7953",
"a  c #C37F5A",
"s  c #C2815C",
"d  c #C1825E",
"f  c #C3835E",
"g  c #C8835F",
"h  c #CA8562",
"j  c #CC8766",
"k  c #C68966",
"l  c #CD8E6C",
"z  c #D0906E",
"x  c #D29270",
"c  c #D19473",
"v  c #DB9679",
"b  c #D49B7C",
"n  c #DB987A",
"m  c #DE9C7F",
"M  c #E09478",
"N  c #E6947A",
"B  c #E7947B",
"V  c #E7977D",
"C  c #DD9F81",
"Z  c #E59E84",
"A  c #EA9A82",
"S  c #DFA487",
"D  c #E3A085",
"F  c #E4A186",
"G  c #E6A388",
"H  c #E0A589",
"J  c #EDA28A",
"K  c #E3AB8F",
"L  c #F2AD97",
"P  c #F1AE97",
"I  c #F3AE98",
"U  c #F3AF99",
"Y  c #EAB197",
"T  c #EBB298",
"R  c #EEB198",
"E  c #EDB298",
"W  c #ECB399",
"Q  c #EEB399",
"!  c #EDB49B",
"~  c #F0B098",
"^  c #F4B09A",
"/  c #F5B39E",
"(  c #EFBDA6",
")  c #EFBEA7",
"_  c #F6B6A0",
"`  c #F6B6A1",
"'  c #F0BEA7",
"]  c #F4BCA6",
"[  c #F8BBA4",
"{  c #F8BBA5",
"}  c #F1C0A9",
"|  c #F4C0AA",
" . c #F5C1AB",
".. c #FAC1AB",
"X. c #F9C2AD",
"o. c #FAC3AD",
"O. c #FCC4AE",
"+. c #FCC4AF",
"@. c #FCC5AF",
"#. c #FCC5B0",
"$. c #FDC6B2",
"%. c #FDC7B2",
"&. c #FDC8B3",
"*. c #FDC8B4",
"=. c #FDC9B4",
"-. c #FDC9B5",
";. c #FDCAB5",
":. c #FDCAB6",
">. c #FDCBB7",
",. c #FECCB8",
"<. c #FECCB9",
"1. c #FECDBA",
"2. c #FFD1BE",
"3. c #FFD2C0",
"4. c None",
/* pixels */
"4.4.4.4.4.4.4.4.4.4.4.4.4.4.4.4.4.4.4.4.4.4.4.4.4.4.4.4.4.4.4.4.4.4.4.4.4.4.4.4.4.4.4.4.4.4.4.4.4.4.4.4.4.4.4.4.4.4.4.4.4.4.4.4.",
"4.4.4.4.4.4.4.4.4.4.4.4.4.4.4.4.4.4.4.4.4.4.4.4.4.4.4.4.4.4.4.4.4.4.4.4.4.4.4.4.4.4.4.4.4.4.4.4.4.4.4.4.4.4.4.4.4.4.4.4.4.4.4.4.",
"4.4.4.4.4.4.4.4.4.4.4.4.4.4.4.4.4.4.4.4.4.4.4.4.4.4.4.4.4.4.4.4.4.4.4.4.4.4.4.4.4.4.4.4.4.4.4.4.4.4.4.4.4.4.4.4.4.4.4.4.4.4.4.4.",
"4.4.4.4.4.4.4.4.4.4.4.4.4.4.4.4.4.4.4.4.4.4.4.4.4.4.4.4.4.4.4.4.4.4.4.4.4.4.4.4.4.4.4.4.4.4.4.4.4.4.4.4.4.4.4.4.4.4.4.4.4.4.4.4.",
"4.4.4.4.X X X X X X X X X X X X X X X X X X X X X X X X X X X X X X X X X X X X X X X X X X X X X X X X X X X X X X .   4.4.4.4.",
"4.4.4.4.X C E E E E E E E E E E ~ n @ ( ' ' ' ' ' ' ' ' ' ' X.f e E E E E E E E E E E R P < k ' ' ' ' ' ' ' ' ' ' | ]   4.4.4.4.",
"4.4.4.4.X Q O.O.O.O.O.O.O.O.O.O._ G : 3.3.3.3.3.3.3.3.3.3.3.#.c y O.O.O.O.O.O.O.O.O.O...L 8 b 3.3.3.3.3.3.3.3.3.3.1.o.  4.4.4.4.",
"4.4.4.4.X Q O.O.O.O.O.O.O.O.O.O._ G : 3.3.3.3.3.3.3.3.3.3.3.#.c y O.O.O.O.O.O.O.O.O.O...L 8 b 3.3.3.3.3.3.3.3.3.3.1.o.  4.4.4.4.",
"4.4.4.4.X Q O.O.O.O.O.O.O.O.O.O._ G : 3.3.3.3.3.3.3.3.3.3.3.#.c y O.O.O.O.O.O.O.O.O.O...L 8 b 3.3.3.3.3.3.3.3.3.3.1.o.  4.4.4.4.",
"4.4.4.4.X Q O.O.O.O.O.O.O.O.O.O._ G : 3.3.3.3.3.3.3.3.3.3.3.#.c y O.O.O.O.O.O.O.O.O.O...L 8 b 3.3.3.3.3.3.3.3.3.3.1.o.  4.4.4.4.",
"4.4.4.4.X Q O.O.O.O.O.O.O.O.O.O._ G : 3.3.3.3.3.3.3.3.3.3.3.#.c y O.O.O.O.O.O.O.O.O.O...L 8 b 3.3.3.3.3.3.3.3.3.3.1.o.  4.4.4.4.",
"4.4.4.4.X Q O.O.O.O.O.O.O.O.O.O._ G : 3.3.3.3.3.3.3.3.3.3.3.#.c y O.O.O.O.O.O.O.O.O.O...L 8 b 3.3.3.3.3.3.3.3.3.3.1.o.  4.4.4.4.",
"4.4.4.4.X Q O.O.O.O.O.O.O.O.O.O._ G : 3.3.3.3.3.3.3.3.3.3.3.#.c y O.O.O.O.O.O.O.O.O.O...L 8 b 3.3.3.3.3.3.3.3.3.3.1.o.  4.4.4.4.",
"4.4.4.4.X Q O.O.O.O.O.O.O.O.O.O._ G : 3.3.3.3.3.3.3.3.3.3.3.#.c y O.O.O.O.O.O.O.O.O.O...L 8 b 3.3.3.3.3.3.3.3.3.3.1.o.  4.4.4.4.",
"4.4.4.4.X Q O.O.O.O.O.O.O.O.O.O._ G : 3.3.3.3.3.3.3.3.3.3.3.#.c y O.O.O.O.O.O.O.O.O.O...L 8 b 3.3.3.3.3.3.3.3.3.3.1.o.  4.4.4.4.",
"4.4.4.4.X Q O.O.O.O.O.O.O.O.O.O._ G : 3.3.3.3.3.3.3.3.3.3.3.#.c y O.O.O.O.O.O.O.O.O.O...L 8 b 3.3.3.3.3.3.3.3.3.3.1.o.  4.4.4.4.",
"4.4.4.4.X Q O.O.O.O.O.O.O.O.O.O._ G 5 ;.;.;.;.;.;.;.;.;.;.-.+.c y O.O.O.O.O.O.O.O.O.O...L 8 K ;.;.;.;.;.;.;.;.;.;.%.o.  4.4.4.4.",
"4.4.4.4.X Q O.O.O.O.O.O.O.O.O.O._ G % Y T T T T T T T T T T T t y O.O.O.O.O.O.O.O.O.O...L 8 l T T T T T T T T T T T S   4.4.4.4.",
"4.4.4.4.X Q O.O.O.O.O.O.O.O.O.O._ G X * ; ; ; ; ; ; ; ; ; ; 6 O y O.O.O.O.O.O.O.O.O.O...L 8 + ; ; ; ; ; ; ; ; ; 4 q 3   4.4.4.4.",
"4.4.4.4.X Q O.O.O.O.O.O.O.O.O.O._ G & O.O.O.O.O.O.O.O.O.O.O.^ h y O.O.O.O.O.O.O.O.O.O...L 8 z O.O.O.O.O.O.O.O.O._ J B   4.4.4.4.",
"4.4.4.4.X Q O.O.O.O.O.O.O.O.O.O._ G = O.O.O.O.O.O.O.O.O.O.O.^ j y O.O.O.O.O.O.O.O.O.O...L 8 x @.+.O.O.O.O.O.O.O._ J N   4.4.4.4.",
"4.4.4.4.X Q O.O.O.O.O.O.O.O.O.O._ G = O.O.O.O.O.O.O.O.O.O.O.^ j y O.O.O.O.O.O.O.O.O.O...L 8 x ,.*.O.O.O.O.O.O.O._ J N   4.4.4.4.",
"4.4.4.4.X Q O.O.O.O.O.O.O.O.O.O._ G = O.O.O.O.O.O.O.O.O.O.O.^ j y O.O.O.O.O.O.O.O.O.O...L 8 x O.O.O.O.O.O.O.O.O._ J N   4.4.4.4.",
"4.4.4.4.X Q O.O.O.O.O.O.O.O.O.O._ G = O.O.O.O.O.O.O.O.O.O.O.^ j y O.O.O.O.O.O.O.O.O.O...L 8 x >.&.O.O.O.O.O.O.O._ J N   4.4.4.4.",
"4.4.4.4.X Q O.O.O.O.O.O.O.O.O.O._ G = O.O.O.O.O.O.O.O.O.O.O.^ j y O.O.O.O.O.O.O.O.O.O...L 8 x 1.=.O.O.O.O.O.O.O._ J N   4.4.4.4.",
"4.4.4.4.X Q O.O.O.O.O.O.O.O.O.O._ G = O.O.O.O.O.O.O.O.O.O.O.^ j y O.O.O.O.O.O.O.O.O.O...L 8 x 1.=.O.O.O.O.O.O.O._ J N   4.4.4.4.",
"4.4.4.4.X Q O.O.O.O.O.O.O.O.O.O._ G = O.O.O.O.O.O.O.O.O.O.O.^ j y O.O.O.O.O.O.O.O.O.O...L 8 x 1.=.O.O.O.O.O.O.O._ J N   4.4.4.4.",
"4.4.4.4.X Q O.O.O.O.O.O.O.O.O.O._ G = O.O.O.O.O.O.O.O.O.O.O.^ j y O.O.O.O.O.O.O.O.O.O...L 8 x 1.=.O.O.O.O.O.O.O._ J N   4.4.4.4.",
"4.4.4.4.X Q O.O.O.O.O.O.O.O.O.O._ G = O.O.O.O.O.O.O.O.O.O.O.^ j y O.O.O.O.O.O.O.O.O.O...L 8 x 1.=.O.O.O.O.O.O.O._ J N   4.4.4.4.",
"4.4.4.4.X Q O.O.O.O.O.O.O.O.O.O._ G = O.O.O.O.O.O.O.O.O.O.O.^ j y O.O.O.O.O.O.O.O.O.O...L 8 x 1.=.O.O.O.O.O.O.O._ J N   4.4.4.4.",
"4.4.4.4.X Q O.O.O.O.O.O.O.O.O.O._ G = O.O.O.O.O.O.O.O.O.O.O.^ j y O.O.O.O.O.O.O.O.O.O...L 8 x 1.=.O.O.O.O.O.O.O._ J N   4.4.4.4.",
"4.4.4.4.X Q O.O.O.O.O.O.O.O.O.O._ G = O.O.O.O.O.O.O.O.O.O.O.^ j y O.O.O.O.O.O.O.O.O.O...L 8 x 1.=.O.O.O.O.O.O.O._ J N   4.4.4.4.",
"4.4.4.4.X Q O.O.O.O.O.O.O.O.O.O._ G = O.O.O.O.O.O.O.O.O.O.O.^ j y O.O.O.O.O.O.O.O.O.O...L 8 x 1.=.O.O.O.O.O.O.O._ J N   4.4.4.4.",
"4.4.4.4.X Q O.O.O.O.O.O.O.O.O.O._ G = O.O.O.O.O.O.O.O.O.O.O.^ j y O.O.O.O.O.O.O.O.O.O...L 8 x 1.=.O.O.O.O.O.O.O._ J N   4.4.4.4.",
"4.4.4.4.X Q O.O.O.O.O.O.O.O.O.O._ G = O.O.O.O.O.O.O.O.O.O.O.^ j y O.O.O.O.O.O.O.O.O.O...L 8 x 1.=.O.O.O.O.O.O.O._ J N   4.4.4.4.",
"4.4.4.4.X Q O.O.O.O.O.O.O.O.O.O._ G = O.O.O.O.O.O.O.O.O.O.O.^ j y O.O.O.O.O.O.O.O.O.O...L 8 x 1.=.O.O.O.O.O.O.O._ J N   4.4.4.4.",
"4.4.4.4.X ~ ` ` ` ` ` ` ` ` ` ` U G = O.O.O.O.O.O.O.O.O.O.O.^ j a ` ` ` ` ` ` ` ` ` ` / L 8 x 1.=.O.O.O.O.O.O.O._ J N   4.4.4.4.",
"4.4.4.4.X v F F F F F F F F F F F g = O.O.O.O.O.O.O.O.O.O.O.^ j r F F F F F F F F F F F D # x 1.=.O.O.O.O.O.O.O._ J N   4.4.4.4.",
"4.4.4.4.X $ , , , , , , , , , , 7 % = O.O.O.O.O.O.O.O.O.O.O.^ j o , , , , , , , , , , 1 0 X x 1.=.O.O.O.O.O.O.O._ J N   4.4.4.4.",
"4.4.4.4.X ) 3.3.3.3.3.3.3.3.3.3.=.W = O.O.O.O.O.O.O.O.O.O.O.^ j u 3.3.3.3.3.3.3.3.3.3.2.O.9 x 1.=.O.O.O.O.O.O.O._ J N   4.4.4.4.",
"4.4.4.4.X } 3.3.3.3.3.3.3.3.3.3.=.! = O.O.O.O.O.O.O.O.O.O.O.^ j i 3.3.3.3.3.3.3.3.3.3.2.O.w x 1.=.O.O.O.O.O.O.O._ J N   4.4.4.4.",
"4.4.4.4.X } 3.3.3.3.3.3.3.3.3.3.=.! = O.O.O.O.O.O.O.O.O.O.O.^ j i 3.3.3.3.3.3.3.3.3.3.2.O.w x :.%.O.O.O.O.O.O.O._ J N   4.4.4.4.",
"4.4.4.4.X } 3.3.3.3.3.3.3.3.3.3.=.! = O.O.O.O.O.O.O.O.O.O.O.^ j i 3.3.3.3.3.3.3.3.3.3.2.O.w x O.O.O.O.O.O.O.O.O._ J N   4.4.4.4.",
"4.4.4.4.X } 3.3.3.3.3.3.3.3.3.3.=.! = O.O.O.O.O.O.O.O.O.O.O.^ j i 3.3.3.3.3.3.3.3.3.3.2.O.w x O.O.O.O.O.O.O.O.O._ J N   4.4.4.4.",
"4.4.4.4.X } 3.3.3.3.3.3.3.3.3.3.=.! = O.O.O.O.O.O.O.O.O.O.O.^ j i 3.3.3.3.3.3.3.3.3.3.2.O.w x O.O.O.O.O.O.O.O.O._ J N   4.4.4.4.",
"4.4.4.4.X } 3.3.3.3.3.3.3.3.3.3.=.! = O.O.O.O.O.O.O.O.O.O.O.^ j i 3.3.3.3.3.3.3.3.3.3.2.O.w x O.O.O.O.O.O.O.O.O._ J N   4.4.4.4.",
"4.4.4.4.X } 3.3.3.3.3.3.3.3.3.3.=.! = O.O.O.O.O.O.O.O.O.O.O.^ j i 3.3.3.3.3.3.3.3.3.3.2.O.w x O.O.O.O.O.O.O.O.O._ J N   4.4.4.4.",
"4.4.4.4.X } 3.3.3.3.3.3.3.3.3.3.=.! = O.O.O.O.O.O.O.O.O.O.O.^ j i 3.3.3.3.3.3.3.3.3.3.2.O.w x O.O.O.O.O.O.O.O.O._ J N   4.4.4.4.",
"4.4.4.4.X } 3.3.3.3.3.3.3.3.3.3.=.! = O.O.O.O.O.O.O.O.O.O.O.^ j i 3.3.3.3.3.3.3.3.3.3.2.O.w x O.O.O.O.O.O.O.O.O._ J N   4.4.4.4.",
"4.4.4.4.X } 3.3.3.3.3.3.3.3.3.3.=.! = O.O.O.O.O.O.O.O.O.O.O.^ j i 3.3.3.3.3.3.3.3.3.3.2.O.w x O.O.O.O.O.O.O.O.O._ J N   4.4.4.4.",
"4.4.4.4.X } 3.3.3.3.3.3.3.3.3.3.=.! = O.O.O.O.O.O.O.O.O.O.O.^ j i 3.3.3.3.3.3.3.3.3.3.2.O.w x O.O.O.O.O.O.O.O.O._ J N   4.4.4.4.",
"4.4.4.4.X } 3.3.3.3.3.3.3.3.3.3.=.! = O.O.O.O.O.O.O.O.O.O.O.^ j i 3.3.3.3.3.3.3.3.3.3.2.O.w x O.O.O.O.O.O.O.O.O._ J N   4.4.4.4.",
"4.4.4.4.X } 3.3.3.3.3.3.3.3.3.3.=.! = O.O.O.O.O.O.O.O.O.O.O.^ j i 3.3.3.3.3.3.3.3.3.3.2.O.w x O.O.O.O.O.O.O.O.O._ J N   4.4.4.4.",
"4.4.4.4.X } 3.3.3.3.3.3.3.3.3.3.=.! = O.O.O.O.O.O.O.O.O.O.O.^ j i 3.3.3.3.3.3.3.3.3.3.2.O.w x O.O.O.O.O.O.O.O.O._ J N   4.4.4.4.",
"4.4.4.4.X } 3.3.3.3.3.3.3.3.3.3.=.! = O.O.O.O.O.O.O.O.O.O.O.^ j i 3.3.3.3.3.3.3.3.3.3.2.O.w x O.O.O.O.O.O.O.O.O._ J N   4.4.4.4.",
"4.4.4.4.X } 3.3.3.3.3.3.3.3.3.3.=.! = O.O.O.O.O.O.O.O.O.O.O.^ j i 3.3.3.3.3.3.3.3.3.3.2.O.w x O.O.O.O.O.O.O.O.O._ J N   4.4.4.4.",
"4.4.4.4.X } 3.3.3.3.3.3.3.3.3.3.=.! = O.O.O.O.O.O.O.O.O.O.O.^ j i 3.3.3.3.3.3.3.3.3.3.2.O.w m ` ` ` ` ` ` ` ` ` U J N   4.4.4.4.",
"4.4.4.4.X  .<.<.<.<.<.<.<.<.<.<.$.! 2 [ [ [ [ [ [ [ [ [ [ { I j s <.<.<.<.<.<.<.<.<.<.>.O.w Z J J J J J J J J J J A N   4.4.4.4.",
"4.4.4.4.. ] o.o.o.o.o.o.o.o.o.o.o.H - P P P P P P P P P P P P p d o.o.o.o.o.o.o.o.o.o.o.o.> M N N N N N N N N N N N V   4.4.4.4.",
"4.4.4.4.                                                                                                                4.4.4.4.",
"4.4.4.4.4.4.4.4.4.4.4.4.4.4.4.4.4.4.4.4.4.4.4.4.4.4.4.4.4.4.4.4.4.4.4.4.4.4.4.4.4.4.4.4.4.4.4.4.4.4.4.4.4.4.4.4.4.4.4.4.4.4.4.4.",
"4.4.4.4.4.4.4.4.4.4.4.4.4.4.4.4.4.4.4.4.4.4.4.4.4.4.4.4.4.4.4.4.4.4.4.4.4.4.4.4.4.4.4.4.4.4.4.4.4.4.4.4.4.4.4.4.4.4.4.4.4.4.4.4.",
"4.4.4.4.4.4.4.4.4.4.4.4.4.4.4.4.4.4.4.4.4.4.4.4.4.4.4.4.4.4.4.4.4.4.4.4.4.4.4.4.4.4.4.4.4.4.4.4.4.4.4.4.4.4.4.4.4.4.4.4.4.4.4.4.",
"4.4.4.4.4.4.4.4.4.4.4.4.4.4.4.4.4.4.4.4.4.4.4.4.4.4.4.4.4.4.4.4.4.4.4.4.4.4.4.4.4.4.4.4.4.4.4.4.4.4.4.4.4.4.4.4.4.4.4.4.4.4.4.4."
};
