/* XPM */
static char *result[] = {
/* columns rows colors chars-per-pixel */
"64 64 135 2 ",
"   c #632D20",
".  c #632C21",
"X  c #622D21",
"o  c #632D21",
"O  c #632E20",
"+  c #632D22",
"@  c #642C21",
"#  c #642D21",
"$  c #642E22",
"%  c #642F22",
"&  c #653022",
"*  c #663023",
"=  c #673123",
"-  c #673224",
";  c #693325",
":  c #693425",
">  c #6A3526",
",  c #6D3827",
"<  c #6E3A28",
"1  c #6F3B28",
"2  c #703C29",
"3  c #795548",
"4  c #825134",
"5  c #845236",
"6  c #865537",
"7  c #8B5B3A",
"8  c #8F5F3D",
"9  c #93633F",
"0  c #93643F",
"q  c #E65100",
"w  c #E75500",
"e  c #E95D01",
"r  c #E91E63",
"t  c #E92063",
"y  c #EA2965",
"u  c #EA2A65",
"i  c #956740",
"p  c #996B42",
"a  c #9D6F45",
"s  c #9F7246",
"d  c #A47749",
"f  c #A4784A",
"g  c #A67A4B",
"h  c #D2476E",
"j  c #EC4379",
"k  c #F26A6F",
"l  c #F26B6F",
"z  c #F78000",
"x  c #F78100",
"c  c #F08503",
"v  c #F18603",
"b  c #FC8E00",
"n  c #FC8F00",
"m  c #FE9400",
"M  c #FF9B00",
"N  c #FFA300",
"B  c #FFA400",
"V  c orange",
"C  c #FFA800",
"Z  c #FFAC00",
"A  c #FFB000",
"S  c #FFB100",
"D  c #FFB200",
"F  c #FFB300",
"G  c #FFB400",
"H  c #AE824F",
"J  c #B08751",
"K  c #B38953",
"L  c #C39C5D",
"P  c #C59E5E",
"I  c #C7A060",
"U  c #C9A261",
"Y  c #CAA361",
"T  c #CDA763",
"R  c #CEA863",
"E  c #CFA964",
"W  c #D1AA65",
"Q  c #D4AF67",
"!  c #DAB56B",
"~  c #DCB76C",
"^  c #DDB96C",
"/  c #DEBA6E",
"(  c #DFBA6E",
")  c #F8A378",
"_  c #F8A478",
"`  c #FBBD7C",
"'  c #FBBC7D",
"]  c #FBBD7D",
"[  c #EAC775",
"{  c #EECD77",
"}  c #EECC79",
"|  c #FCC77E",
" . c #F3D27A",
".. c #F4D37B",
"X. c #F7D77D",
"o. c #F8D87D",
"O. c #9C27B0",
"+. c #A233AD",
"@. c #A232AE",
"#. c #FF3F80",
"$. c #FF3F81",
"%. c #AB43A9",
"&. c #AC44A8",
"*. c #FF4080",
"=. c #FF4081",
"-. c #C3719D",
";. c #C3709E",
":. c #2089E4",
">. c #CD8399",
",. c #CD829A",
"<. c #E4AE8E",
"1. c #E4AE8F",
"2. c #E0A591",
"3. c #E1A790",
"4. c #D5D095",
"5. c #D6D094",
"6. c #D6D194",
"7. c #F2C888",
"8. c #F6D086",
"9. c #FFD082",
"0. c #FFD681",
"q. c #FFD582",
"w. c #FFD682",
"e. c #FFD683",
"r. c #FDDD81",
"t. c #FEDE81",
"y. c #FFDF81",
"u. c #FEDD82",
"i. c #FFDF82",
"p. c #FFE081",
"a. c #FFE181",
"s. c #FFE082",
"d. c #FFE182",
"f. c #FFE083",
"g. c None",
/* pixels */
"g.g.g.g.g.g.g.g.g.g.g.g.g.g.g.g.g.g.g.g.g.g.g.g.g.g.g.g.g.g.g.g.g.g.g.g.g.g.g.g.g.g.g.g.g.g.g.g.g.g.g.g.g.g.g.g.g.g.g.g.g.g.g.g.",
"g.g.g.g.g.g.g.g.g.g.g.g.g.g.g.g.g.g.g.g.g.g.g.g.g.g.g.g.g.g.g.g.g.g.g.g.g.g.g.g.g.g.g.g.g.g.g.g.g.g.g.g.g.g.g.g.g.g.g.g.g.g.g.g.",
"g.g.g.g.g.g.g.g.g.g.g.g.g.g.g.g.g.g.g.g.g.g.g.g.g.g.g.g.g.g.g.g.g.g.g.g.g.g.g.g.g.g.g.g.g.g.g.g.g.g.g.g.g.g.g.g.g.g.g.g.g.g.g.g.",
"g.g.g.g.g.g.g.g.g.g.g.g.g.g.g.g.g.g.g.g.g.g.g.g.g.g.g.g.g.g.g.g.g.g.g.g.g.g.g.g.g.g.g.g.g.g.g.g.g.g.g.g.g.g.g.g.g.g.g.g.g.g.g.g.",
"g.g.g.g.g.g.g.g.g.g.g.g.g.g.g.g.g.g.g.g.g.g.g.g.g.g.g.g.g.g.g.F F g.g.g.g.g.g.g.g.g.g.g.g.g.g.g.g.g.g.g.g.g.g.g.g.g.g.g.g.g.g.g.",
"g.g.g.g.g.g.g.g.g.g.g.g.g.g.g.g.g.g.g.g.g.g.g.g.g.g.g.g.g.g.F F F D g.g.g.g.g.g.g.g.g.g.g.g.g.g.g.g.g.g.g.g.g.g.g.g.g.g.g.g.g.g.",
"g.g.g.g.g.g.g.g.g.g.g.g.g.g.g.g.g.g.g.g.g.g.g.g.g.g.g.g.g.g.F F F F g.g.g.g.g.g.g.g.g.g.g.g.g.g.g.g.g.g.g.g.g.g.g.g.g.g.g.g.g.g.",
"g.g.g.g.g.g.g.g.g.g.g.g.g.g.g.g.g.g.g.g.g.g.g.g.g.g.g.g.g.F F F F F F g.g.g.g.g.g.g.g.g.g.g.g.g.g.g.g.g.g.g.g.g.g.g.g.g.g.g.g.g.",
"g.g.g.g.g.g.g.g.g.g.g.g.g.g.g.g.g.g.g.g.g.g.g.g.g.g.g.g.g.F F F F F F g.g.g.g.g.g.g.g.g.g.g.g.g.g.g.g.g.g.g.g.g.g.g.g.g.g.g.g.g.",
"g.g.g.g.g.g.g.g.g.g.g.g.g.g.g.g.g.g.g.g.g.g.g.g.g.g.g.g.F F F F F F F F g.g.g.g.g.g.g.g.g.g.g.g.g.g.g.g.g.g.g.g.g.g.g.g.g.g.g.g.",
"g.g.g.g.g.g.g.g.g.g.g.g.g.g.g.g.g.g.g.g.g.g.g.g.g.g.g.g.F F F F F F F F g.g.g.g.g.g.g.g.g.g.g.g.g.g.g.g.g.g.g.g.g.g.g.g.g.g.g.g.",
"g.g.g.g.g.g.g.g.g.g.g.g.g.g.g.g.g.g.g.g.g.g.g.g.g.g.g.F F F F F F F F F G g.g.g.g.g.g.g.g.g.g.g.g.g.g.g.g.g.g.g.g.g.g.g.g.g.g.g.",
"g.g.g.g.g.g.g.g.g.g.g.g.g.g.g.g.g.g.g.g.g.g.g.g.g.g.g.F F F F F F F F F F g.g.g.g.g.g.g.g.g.g.g.g.g.g.g.g.g.g.g.g.g.g.g.g.g.g.g.",
"g.g.g.g.g.g.g.g.g.g.g.g.g.g.g.g.g.g.g.g.g.g.g.g.g.g.g.F F F S C C S F F F g.g.g.g.g.g.g.g.g.g.g.g.g.g.g.g.g.g.g.g.g.g.g.g.g.g.g.",
"g.g.g.g.g.g.g.g.g.g.g.g.g.g.g.g.g.g.g.g.g.g.g.g.g.g.g.F F A M m m M A F F g.g.g.g.g.g.g.g.g.g.g.g.g.g.g.g.g.g.g.g.g.g.g.g.g.g.g.",
"g.g.g.g.g.g.g.g.g.g.g.g.g.g.g.g.g.g.g.g.g.g.g.g.g.g.g.F F B b w w n V F F g.g.g.g.g.g.g.g.g.g.g.g.g.g.g.g.g.g.g.g.g.g.g.g.g.g.g.",
"g.g.g.g.g.g.g.g.g.g.g.g.g.g.g.g.g.g.g.g.g.g.g.g.g.g.g.g.F N x q q x N F g.g.g.g.g.g.g.g.g.g.g.g.g.g.g.g.g.g.g.g.g.g.g.g.g.g.g.g.",
"g.g.g.g.g.g.g.g.g.g.g.g.g.g.g.g.g.g.g.g.g.g.g.g.g.g.g.g.g.Z z q q z Z D g.g.g.g.g.g.g.g.g.g.g.g.g.g.g.g.g.g.g.g.g.g.g.g.g.g.g.g.",
"g.g.g.g.g.g.g.g.g.g.g.g.g.g.g.g.g.g.g.g.g.g.g.g.g.g.g.g.g.g.c e e v g.g.g.g.g.g.g.g.g.g.g.g.g.g.g.g.g.g.g.g.g.g.g.g.g.g.g.g.g.g.",
"g.g.g.g.g.g.g.g.g.g.g.g.g.g.g.g.g.g.g.g.g.g.g.g.g.g.g.g.g.g.g.3 3 g.g.g.g.g.g.g.g.g.g.g.g.g.g.g.g.g.g.g.g.g.g.g.g.g.g.g.g.g.g.g.",
"g.g.g.g.g.g.g.g.g.g.g.g.g.g.g.g.g.g.g.g.g.g.g.g.g.g.g.g.g.g.g.3 3 g.g.g.g.g.g.g.g.g.g.g.g.g.g.g.g.g.g.g.g.g.g.g.g.g.g.g.g.g.g.g.",
"g.g.g.g.g.g.g.g.g.g.g.g.g.g.g.g.g.g.g.g.g.g.g.g.g.g.g.g.#.#.j h h j *.g.g.g.g.g.g.g.g.g.g.g.g.g.g.g.g.g.g.g.g.g.g.g.g.g.g.g.g.g.",
"g.g.g.g.g.g.g.g.g.g.g.g.g.g.g.g.g.g.g.g.g.g.g.g.g.g.g.$.=.=.=.=.=.=.=.=.$.g.g.g.g.g.g.g.g.g.g.g.g.g.g.g.g.g.g.g.g.g.g.g.g.g.g.g.",
"g.g.g.g.g.g.g.g.g.g.g.g.g.g.g.g.g.g.g.g.g.g.g.g.g.g.g.=.=.=.=.=.=.=.=.=.=.g.g.g.g.g.g.g.g.g.g.g.g.g.g.g.g.g.g.g.g.g.g.g.g.g.g.g.",
"g.g.g.g.g.g.g.g.g.g.g.g.g.g.g.g.g.g.g.g.g.g.g.g.g.g.g.=.=.=.=.=.=.=.=.=.=.g.g.g.g.g.g.g.g.g.g.g.g.g.g.g.g.g.g.g.g.g.g.g.g.g.g.g.",
"g.g.g.g.g.g.g.g.g.g.g.g.g.g.g.g.g.g.g.g.g.g.g.g.g.g.g.=.=.=.=.=.=.=.=.=.=.g.g.g.g.g.g.g.g.g.g.g.g.g.g.g.g.g.g.g.g.g.g.g.g.g.g.g.",
"g.g.g.g.g.g.g.g.g.g.g.g.g.g.g.g.g.g.g.g.g.g.g.g.g.g.g.=.=.=.=.=.=.=.=.=.=.g.g.g.g.g.g.g.g.g.g.g.g.g.g.g.g.g.g.g.g.g.g.g.g.g.g.g.",
"g.g.g.g.g.g.g.g.g.g.g.g.g.g.g.g.g.g.g.g.g.g.g.g.g.g.g.=.=.=.=.=.=.=.=.=.=.g.g.g.g.g.g.g.g.g.g.g.g.g.g.g.g.g.g.g.g.g.g.g.g.g.g.g.",
"g.g.g.g.g.g.g.g.g.g.g.g.g.g.g.g.g.g.g.g.g.g.g.g.g.g.g.=.=.=.=.=.=.=.=.=.=.g.g.g.g.g.g.g.g.g.g.g.g.g.g.g.g.g.g.g.g.g.g.g.g.g.g.g.",
"g.g.g.g.g.g.g.g.g.g.g.g.g.g.g.g.g.g.g.g.g.g.g.g.g.g.g.=.=.=.=.=.=.=.=.=.=.g.g.g.g.g.g.g.g.g.g.g.g.g.g.g.g.g.g.g.g.g.g.g.g.g.g.g.",
"g.g.g.g.g.g.g.g.g.g.g.g.g.g.g.g.g.g.g.g.g.g.g.g.g.g.g.=.=.=.=.=.=.=.=.=.=.g.g.g.g.g.g.g.g.g.g.g.g.g.g.g.g.g.g.g.g.g.g.g.g.g.g.g.",
"g.g.g.g.g.g.g.g.g.g.g.g.g.g.g.g.g.g.g.g.g.g.g.g.g.g.g.=.=.=.=.=.=.=.=.=.=.g.g.g.g.g.g.g.g.g.g.g.g.g.g.g.g.g.g.g.g.g.g.g.g.g.g.g.",
"g.g.g.g.g.g.g.g.g.g.g.g.g.g.g.g.g.g.g.g.g.g.g.p.s.s.e.9.q.w.s.s.s.s.w.q.9.0.s.s.i.g.g.g.g.g.g.g.g.g.g.g.g.g.g.g.g.g.g.g.g.g.g.g.",
"g.g.g.g.g.g.g.g.g.g.g.g.g.g.g.g.g.g.a.s.s.s.s.s.s.s.s.s.s.s.s.s.s.s.s.s.s.s.s.s.s.s.s.s.s.d.g.g.g.g.g.g.g.g.g.g.g.g.g.g.g.g.g.g.",
"g.g.g.g.g.g.g.g.g.g.g.g.g.g.g.g.p.s.s.s.s.s.s.' ` s.s.s.s.s.s.s.8.<.u.s.s.s.s.4.5.s.s.s.s.s.s.i.g.g.g.g.g.g.g.g.g.g.g.g.g.g.g.g.",
"g.g.g.g.g.g.g.g.g.g.g.g.g.g.g.s.s.s.s.s.s.s.` t t ` s.s.s.s.s.s.%.O.,.s.s.s.5.:.:.5.s.s.s.s.s.s.s.g.g.g.g.g.g.g.g.g.g.g.g.g.g.g.",
"g.g.g.g.g.g.g.g.g.g.g.g.g.g.s.s.s.s.s.s.s.s.` t t ] s.s.s.s.s.s.&.O.>.s.s.s.5.:.:.6.s.s.s.s.s.s.s.s.g.g.g.g.g.g.g.g.g.g.g.g.g.g.",
"g.g.g.g.g.g.g.g.g.g.g.g.g.y.s.s.s.s.s.s.s.s.s.` ` s.s.s.2.;.7.s.8.1.u.s.s.s.s.5.5.s.s.s.s.s.s.s.s.s.g.g.g.g.g.g.g.g.g.g.g.g.g.g.",
"g.g.g.g.g.g.g.g.g.g.g.g.g.f.s.s.s.s.s.s.s.s.s.s.s.s.s.s.@.O.-.s.s.s.s.s.s.s.s.s.s.s.s.s.s.s.s.s.s.s.s.g.g.g.g.g.g.g.g.g.g.g.g.g.",
"g.g.g.g.g.g.g.g.g.g.g.g.g.i.s.s.s.s.s.s.s.s.s.s.s.s.s.s.-.+.3.s.s.s.s.s.s.s.s.s.s.s.s.s.s.s.s.s.s.s.f.g.g.g.g.g.g.g.g.g.g.g.g.g.",
"g.g.g.g.g.g.g.g.g.g.g.g.g.g.s.s.s.s.s.s.s.s.s.s.s.s.s.s.s.s.s.s.s.) y k s.s.s.s.s.s.s.s.s.s.s.s.s.s.g.g.g.g.g.g.g.g.g.g.g.g.g.g.",
"g.g.g.g.g.g.g.g.g.g.g.g.g.g.} s.s.s.s.s.s.s.s.s.s.s.s.s.s.s.s.s.s.k r u s.s.s.s.s.s.s.s.s.s.s.s.s.o.g.g.g.g.g.g.g.g.g.g.g.g.g.g.",
"g.g.g.g.g.g.g.g.g.g.g.g.g.g.g.J i.s.s.s.s.s.s.s.s.s.s.s.s.s.s.s.s.| l _ s.s.s.s.s.s.s.s.s.s.s.s./ g.g.g.g.g.g.g.g.g.g.g.g.g.g.g.",
"g.g.g.g.g.g.g.g.g.g.g.g.g.g.g.o i r.s.s.s.s.s.s.s.s.s.s.s.s.s.s.s.s.s.s.s.s.s.s.s.s.s.s.s.s.{ 9 o g.g.g.g.g.g.g.g.g.g.g.g.g.g.g.",
"g.g.g.g.g.g.g.g.g.g.g.g.g.g.g.o o a s.s.s.s.s.s.s.s.s.s.s.s.s.s.s.s.s.s.s.s.s.s.s.s.s.s.s.L * o o g.g.g.g.g.g.g.g.g.g.g.g.g.g.g.",
"g.g.g.g.g.g.g.g.g.g.g.g.g.g.g.o o o ! s.s.s.s.s.s.s.s.s.s.s.s.s.s.s.s.s.s.s.s.s.s.s.s.s.W & o o o g.g.g.g.g.g.g.g.g.g.g.g.g.g.g.",
"g.g.g.g.g.g.g.g.g.g.g.g.g.g.g.  o o a s.s.s.s.U 8 d ..s.s.s.s.s.s.s.s.s.P 7 f { s.s.s.^ > o o o o g.g.g.g.g.g.g.g.g.g.g.g.g.g.g.",
"g.g.g.g.g.g.g.g.g.g.g.g.g.g.g.o o o 1 t.s.s. .- o o 4 t.s.s.s.s.s.s.s.~ % o o 2 E X.R < o o o o # g.g.g.g.g.g.g.g.g.g.g.g.g.g.g.",
"g.g.g.g.g.g.g.g.g.g.g.g.g.g.g.O o o o ( s.s.Y o o o o T s.s.s.s.s.s.s.0 o o o o o o o o o o o o . g.g.g.g.g.g.g.g.g.g.g.g.g.g.g.",
"g.g.g.g.g.g.g.g.g.g.g.g.g.g.g.X o o o s s.s.s o o o o p s.s.s.s.s.s.[ % o o o o o o o o o o o o + g.g.g.g.g.g.g.g.g.g.g.g.g.g.g.",
"g.g.g.g.g.g.g.g.g.g.g.g.g.g.g.O o o o $ H I : o o o o ; ..s.s.s.s.s.g o o o o o o o o o o o o o @ g.g.g.g.g.g.g.g.g.g.g.g.g.g.g.",
"g.g.g.g.g.g.g.g.g.g.g.g.g.g.g.g.o o o o o o o o o o o o K s.s.s.s.! & o o o o o o o o o o o o o g.g.g.g.g.g.g.g.g.g.g.g.g.g.g.g.",
"g.g.g.g.g.g.g.g.g.g.g.g.g.g.g.g.o o o o o o o o o o o o = E s.s.Q , o o o o o o o o o o o o o o g.g.g.g.g.g.g.g.g.g.g.g.g.g.g.g.",
"g.g.g.g.g.g.g.g.g.g.g.g.g.g.g.g.o o o o o o o o o o o o o o 6 5 o o o o o o o o o o o o o o o o g.g.g.g.g.g.g.g.g.g.g.g.g.g.g.g.",
"g.g.g.g.g.g.g.g.g.g.g.g.g.g.g.g.o o o o o o o o o o o o o o o o o o o o o o o o o o o o o o o o g.g.g.g.g.g.g.g.g.g.g.g.g.g.g.g.",
"g.g.g.g.g.g.g.g.g.g.g.g.g.g.g.g.o o o o o o o o o o o o o o o o o o o o o o o o o o o o o o o o g.g.g.g.g.g.g.g.g.g.g.g.g.g.g.g.",
"g.g.g.g.g.g.g.g.g.g.g.g.g.g.g.g.o o o o o o o o o o o o o o o o o o o o o o o o o o o o o o o o g.g.g.g.g.g.g.g.g.g.g.g.g.g.g.g.",
"g.g.g.g.g.g.g.g.g.g.g.g.g.g.g.g.o o o o o o o o o o o o o o o o o o o o o o o o o o o o o o o o g.g.g.g.g.g.g.g.g.g.g.g.g.g.g.g.",
"g.g.g.g.g.g.g.g.g.g.g.g.g.g.g.g.X o o o o o o o o o o o o o o o o o o o o o o o o o o o o o o # g.g.g.g.g.g.g.g.g.g.g.g.g.g.g.g.",
"g.g.g.g.g.g.g.g.g.g.g.g.g.g.g.g.g.X o o o o o o o o o o o o o o o o o o o o o o o o o o o o # g.g.g.g.g.g.g.g.g.g.g.g.g.g.g.g.g.",
"g.g.g.g.g.g.g.g.g.g.g.g.g.g.g.g.g.g.g.g.g.g.g.g.g.g.g.g.g.g.g.g.g.g.g.g.g.g.g.g.g.g.g.g.g.g.g.g.g.g.g.g.g.g.g.g.g.g.g.g.g.g.g.g.",
"g.g.g.g.g.g.g.g.g.g.g.g.g.g.g.g.g.g.g.g.g.g.g.g.g.g.g.g.g.g.g.g.g.g.g.g.g.g.g.g.g.g.g.g.g.g.g.g.g.g.g.g.g.g.g.g.g.g.g.g.g.g.g.g.",
"g.g.g.g.g.g.g.g.g.g.g.g.g.g.g.g.g.g.g.g.g.g.g.g.g.g.g.g.g.g.g.g.g.g.g.g.g.g.g.g.g.g.g.g.g.g.g.g.g.g.g.g.g.g.g.g.g.g.g.g.g.g.g.g.",
"g.g.g.g.g.g.g.g.g.g.g.g.g.g.g.g.g.g.g.g.g.g.g.g.g.g.g.g.g.g.g.g.g.g.g.g.g.g.g.g.g.g.g.g.g.g.g.g.g.g.g.g.g.g.g.g.g.g.g.g.g.g.g.g."
};
